<?xml version="1.0" encoding="iso-8859-1"?>
<!-- Generator: Adobe Illustrator 19.0.0, SVG Export Plug-In . SVG Version: 6.00 Build 0)  -->
<svg version="1.1" id="Layer_1" xmlns="http://www.w3.org/2000/svg" xmlns:xlink="http://www.w3.org/1999/xlink" x="0px" y="0px"
	 viewBox="0 0 512 512" style="enable-background:new 0 0 512 512;" xml:space="preserve">
<path style="fill:#D9F3FF;" d="M426.11,106.628C407.475,44.94,350.251,0,282.483,0c-47.731,0-90.167,22.356-117.653,57.088
	c-7.386-2.622-15.303-4.122-23.588-4.122c-39.002,0-70.621,31.618-70.621,70.621c0,0.594,0.074,1.17,0.089,1.76
	C30.374,133.493,0,169.124,0,211.862c0,48.754,39.522,88.276,88.276,88.276h326.621c53.629,0,97.103-43.475,97.103-97.103
	C512,153.204,474.449,112.195,426.11,106.628z"/>
<g>
	<path style="fill:#B8E9FF;" d="M79.448,229.517c0-39.708,26.222-73.28,62.29-84.375c2.479-22.026,20.952-39.211,43.641-39.211
		c1.639,0,3.192,0.308,4.783,0.482c15.31-56.205,66.573-97.586,127.63-97.586c6.391,0,12.665,0.49,18.814,1.366
		C319.805,3.681,301.59,0,282.483,0c-47.731,0-90.167,22.356-117.653,57.088c-7.386-2.622-15.303-4.122-23.588-4.122
		c-39.002,0-70.621,31.618-70.621,70.621c0,0.594,0.074,1.17,0.089,1.76C30.374,133.493,0,169.124,0,211.862
		c0,48.754,39.522,88.276,88.276,88.276h26.644C93.423,284.038,79.448,258.441,79.448,229.517z"/>
	<circle style="fill:#B8E9FF;" cx="229.517" cy="494.345" r="17.655"/>
</g>
<g>
	<circle style="fill:#00D2FF;" cx="229.517" cy="414.897" r="8.828"/>
	<circle style="fill:#00D2FF;" cx="229.517" cy="450.207" r="8.828"/>
	<circle style="fill:#00D2FF;" cx="229.517" cy="344.276" r="8.828"/>
	<circle style="fill:#00D2FF;" cx="229.517" cy="379.586" r="8.828"/>
	<path style="fill:#00D2FF;" d="M220.69,300.138v8.828c0,4.875,3.953,8.828,8.828,8.828s8.828-3.953,8.828-8.828v-8.828H220.69z"/>
</g>
<circle style="fill:#B8E9FF;" cx="282.483" cy="494.345" r="17.655"/>
<g>
	<circle style="fill:#00D2FF;" cx="282.483" cy="414.897" r="8.828"/>
	<circle style="fill:#00D2FF;" cx="282.483" cy="450.207" r="8.828"/>
	<circle style="fill:#00D2FF;" cx="282.483" cy="344.276" r="8.828"/>
	<circle style="fill:#00D2FF;" cx="282.483" cy="379.586" r="8.828"/>
	<path style="fill:#00D2FF;" d="M273.655,300.138v8.828c0,4.875,3.953,8.828,8.828,8.828s8.828-3.953,8.828-8.828v-8.828H273.655z"
		/>
</g>
<circle style="fill:#B8E9FF;" cx="335.448" cy="494.345" r="17.655"/>
<g>
	<circle style="fill:#00D2FF;" cx="335.448" cy="414.897" r="8.828"/>
	<circle style="fill:#00D2FF;" cx="335.448" cy="450.207" r="8.828"/>
	<circle style="fill:#00D2FF;" cx="335.448" cy="344.276" r="8.828"/>
	<circle style="fill:#00D2FF;" cx="335.448" cy="379.586" r="8.828"/>
	<path style="fill:#00D2FF;" d="M326.621,300.138v8.828c0,4.875,3.953,8.828,8.828,8.828s8.828-3.953,8.828-8.828v-8.828H326.621z"
		/>
</g>
<circle style="fill:#B8E9FF;" cx="176.552" cy="494.345" r="17.655"/>
<g>
	<circle style="fill:#00D2FF;" cx="176.552" cy="414.897" r="8.828"/>
	<circle style="fill:#00D2FF;" cx="176.552" cy="450.207" r="8.828"/>
	<circle style="fill:#00D2FF;" cx="176.552" cy="344.276" r="8.828"/>
	<circle style="fill:#00D2FF;" cx="176.552" cy="379.586" r="8.828"/>
	<path style="fill:#00D2FF;" d="M167.724,300.138v8.828c0,4.875,3.953,8.828,8.828,8.828s8.828-3.953,8.828-8.828v-8.828H167.724z"
		/>
</g>
<circle style="fill:#B8E9FF;" cx="467.862" cy="414.897" r="17.655"/>
<g>
	<circle style="fill:#00D2FF;" cx="388.414" cy="414.897" r="8.828"/>
	<circle style="fill:#00D2FF;" cx="423.724" cy="414.897" r="8.828"/>
	<circle style="fill:#00D2FF;" cx="388.414" cy="344.276" r="8.828"/>
	<circle style="fill:#00D2FF;" cx="388.414" cy="379.586" r="8.828"/>
	<path style="fill:#00D2FF;" d="M397.241,300.138v8.828c0,4.875-3.953,8.828-8.828,8.828s-8.828-3.953-8.828-8.828v-8.828H397.241z"
		/>
</g>
<circle style="fill:#B8E9FF;" cx="44.138" cy="414.897" r="17.655"/>
<g>
	<circle style="fill:#00D2FF;" cx="123.586" cy="414.897" r="8.828"/>
	<circle style="fill:#00D2FF;" cx="88.276" cy="414.897" r="8.828"/>
	<circle style="fill:#00D2FF;" cx="123.586" cy="344.276" r="8.828"/>
	<circle style="fill:#00D2FF;" cx="123.586" cy="379.586" r="8.828"/>
	<path style="fill:#00D2FF;" d="M114.759,300.138v8.828c0,4.875,3.953,8.828,8.828,8.828c4.875,0,8.828-3.953,8.828-8.828v-8.828
		H114.759z"/>
</g>
<path style="fill:#5B5D6E;" d="M256,397.241L256,397.241c-68.255,0-123.586-55.331-123.586-123.586l0,0
	c0-68.255,55.331-123.586,123.586-123.586l0,0c68.255,0,123.586,55.331,123.586,123.586l0,0
	C379.586,341.91,324.255,397.241,256,397.241z"/>
<path style="fill:#00D2FF;" d="M329.492,256.918c0-14.705-10.264-27.254-24.576-31.972c0.205-1.297,0.327-2.613,0.327-3.95
	c0-14.772-13.026-26.788-29.035-26.788c-7.849,0-14.976,2.893-20.207,7.58c-5.231-4.685-12.359-7.58-20.207-7.58
	c-16.009,0-29.035,12.018-29.035,26.788c0,1.336,0.121,2.653,0.327,3.95c-14.312,4.718-24.576,17.268-24.576,31.972
	c0,7.953,3.112,15.556,8.543,21.556c-5.431,5.996-8.543,13.603-8.543,21.551c0,11.358,6.259,21.884,16.326,28.131
	c1.638,15.358,15.772,27.399,32.916,27.399c9.574,0,18.205-3.758,24.25-9.748c6.045,5.99,14.676,9.748,24.25,9.748
	c17.827,0,32.393-13.018,33.046-29.249c10.108-7.044,16.195-18.078,16.195-29.873c0-7.427-2.372-14.429-6.529-20.333
	C327.209,270.509,329.492,263.9,329.492,256.918z M231.75,337.901c-8.5,0-15.423-5.711-15.423-12.728
	c0-5.241,4.018-10.026,9.992-11.905c4.655-1.461,7.233-6.418,5.775-11.069c-1.465-4.647-6.406-7.238-11.069-5.775
	c-7.441,2.339-13.516,6.958-17.447,12.831c-2.185-2.663-3.415-5.853-3.415-9.228c0-5.556,3.448-10.694,9.224-13.746
	c2.897-1.53,4.707-4.534,4.707-7.806s-1.811-6.276-4.707-7.806c-5.775-3.052-9.224-8.19-9.224-13.75
	c0-8.953,8.644-16.237,19.302-16.312c0.129,0.002,0.257,0.007,0.386,0.003c2.97,0.028,5.818,0.595,8.459,1.709
	c4.483,1.888,9.673-0.203,11.569-4.707c1.888-4.491-0.215-9.668-4.707-11.561c-3.325-1.401-6.803-2.321-10.389-2.774
	c-0.225-0.684-0.37-1.446-0.37-2.282c0-5.035,5.103-9.133,11.38-9.133s11.38,4.099,11.38,9.133v41.39
	c-4.608-2.24-9.855-3.516-15.423-3.516c-4.879,0-8.828,3.953-8.828,8.828s3.948,8.828,8.828,8.828c8.5,0,15.423,5.707,15.423,12.724
	v35.923C247.172,332.19,240.25,337.901,231.75,337.901z M280.25,337.901c-8.5,0-15.423-5.711-15.423-12.728v-7.181
	c0-5.246,4.009-10.03,9.983-11.905c4.647-1.461,7.233-6.418,5.775-11.069c-1.457-4.642-6.405-7.254-11.069-5.775
	c-1.632,0.513-3.197,1.139-4.69,1.86v-70.106c0-5.035,5.103-9.133,11.38-9.133s11.38,4.099,11.38,9.133
	c0,2.289-1.069,4.03-1.965,5.086c-0.009,0.011-0.015,0.022-0.024,0.032c-0.118,0.142-0.227,0.292-0.337,0.441
	c-0.067,0.092-0.141,0.18-0.204,0.273c-0.035,0.053-0.066,0.11-0.1,0.163c-2.38,3.671-1.725,8.626,1.7,11.53
	c1.715,1.45,3.808,2.126,5.878,2.084c10.657,0.074,19.303,7.358,19.303,16.312c0,2.586-0.756,5.098-2.172,7.364
	c-3.431-1.892-7.21-3.35-11.26-4.278c-4.75-1.121-9.492,1.875-10.578,6.634c-1.086,4.75,1.879,9.487,6.63,10.573
	c10.232,2.345,17.379,10.25,17.379,19.224c0,4.147-1.582,8.152-4.356,11.476c-0.883-1.174-1.86-2.297-2.929-3.36
	c-3.457-3.439-9.043-3.423-12.483,0.034c-3.441,3.457-3.423,9.047,0.034,12.483c1.63,1.621,3.569,4.341,3.569,8.104
	C295.672,332.19,288.75,337.901,280.25,337.901z"/>
<g>
</g>
<g>
</g>
<g>
</g>
<g>
</g>
<g>
</g>
<g>
</g>
<g>
</g>
<g>
</g>
<g>
</g>
<g>
</g>
<g>
</g>
<g>
</g>
<g>
</g>
<g>
</g>
<g>
</g>
</svg>
