<?xml version="1.0" encoding="iso-8859-1"?>
<!-- Generator: Adobe Illustrator 19.0.0, SVG Export Plug-In . SVG Version: 6.00 Build 0)  -->
<svg version="1.1" id="Layer_1" xmlns="http://www.w3.org/2000/svg" xmlns:xlink="http://www.w3.org/1999/xlink" x="0px" y="0px"
	 viewBox="0 0 512 512" style="enable-background:new 0 0 512 512;" xml:space="preserve">
<g>
	<path style="fill:#34495E;" d="M64.882,190.561c-1.528,0-2.78-1.247-2.78-2.775s1.252-2.767,2.78-2.767s2.765,1.239,2.765,2.767
		C67.644,189.312,66.408,190.561,64.882,190.561z"/>
	<path style="fill:#34495E;" d="M64.882,201.057c-1.528,0-2.78-1.249-2.78-2.775s1.252-2.767,2.78-2.767s2.765,1.239,2.765,2.767
		S66.408,201.057,64.882,201.057z"/>
	<path style="fill:#34495E;" d="M64.882,211.553c-1.528,0-2.78-1.249-2.78-2.775c0-1.528,1.252-2.77,2.78-2.77
		s2.765,1.239,2.765,2.77C67.644,210.304,66.408,211.553,64.882,211.553z"/>
	<path style="fill:#34495E;" d="M64.882,222.047c-1.528,0-2.78-1.239-2.78-2.775c0-1.528,1.252-2.77,2.78-2.77
		s2.765,1.239,2.765,2.77C67.644,220.808,66.408,222.047,64.882,222.047z"/>
	<path style="fill:#34495E;" d="M64.882,232.543c-1.528,0-2.78-1.247-2.78-2.775S63.354,227,64.882,227s2.765,1.239,2.765,2.767
		C67.644,231.296,66.408,232.543,64.882,232.543z"/>
	<path style="fill:#34495E;" d="M64.882,243.041c-1.528,0-2.78-1.247-2.78-2.775s1.252-2.767,2.78-2.767s2.765,1.239,2.765,2.767
		C67.644,241.792,66.408,243.041,64.882,243.041z"/>
	<path style="fill:#34495E;" d="M64.882,253.537c-1.528,0-2.78-1.249-2.78-2.775c0-1.526,1.252-2.767,2.78-2.767
		s2.765,1.239,2.765,2.767S66.408,253.537,64.882,253.537z"/>
	<path style="fill:#34495E;" d="M64.882,264.033c-1.528,0-2.78-1.239-2.78-2.778c0-1.528,1.252-2.767,2.78-2.767
		s2.765,1.239,2.765,2.767C67.644,262.792,66.408,264.033,64.882,264.033z"/>
	<path style="fill:#34495E;" d="M64.882,274.527c-1.528,0-2.78-1.247-2.78-2.775s1.252-2.767,2.78-2.767s2.765,1.239,2.765,2.767
		S66.408,274.527,64.882,274.527z"/>
	<path style="fill:#34495E;" d="M64.882,285.025c-1.528,0-2.78-1.249-2.78-2.778s1.252-2.767,2.78-2.767s2.765,1.239,2.765,2.767
		S66.408,285.025,64.882,285.025z"/>
	<path style="fill:#34495E;" d="M64.882,295.521c-1.528,0-2.78-1.247-2.78-2.775c0-1.531,1.252-2.77,2.78-2.77
		s2.765,1.239,2.765,2.77C67.644,294.272,66.408,295.521,64.882,295.521z"/>
	<path style="fill:#34495E;" d="M64.882,306.015c-1.528,0-2.78-1.239-2.78-2.775c0-1.528,1.252-2.767,2.78-2.767
		s2.765,1.239,2.765,2.767C67.644,304.776,66.408,306.015,64.882,306.015z"/>
	<path style="fill:#34495E;" d="M64.882,316.513c-1.528,0-2.78-1.247-2.78-2.778c0-1.528,1.252-2.767,2.78-2.767
		s2.765,1.239,2.765,2.767C67.644,315.264,66.408,316.513,64.882,316.513z"/>
	<path style="fill:#34495E;" d="M64.882,327.007c-1.528,0-2.78-1.247-2.78-2.775s1.252-2.767,2.78-2.767s2.765,1.239,2.765,2.767
		S66.408,327.007,64.882,327.007z"/>
	<path style="fill:#34495E;" d="M256.001,79.936c-1.528,0-2.783-1.239-2.783-2.77c0-1.536,1.257-2.775,2.783-2.775
		c1.533,0,2.785,1.239,2.785,2.775C258.787,78.697,257.535,79.936,256.001,79.936z"/>
	<path style="fill:#34495E;" d="M256.001,90.432c-1.528,0-2.783-1.239-2.783-2.77c0-1.536,1.257-2.767,2.783-2.767
		c1.533,0,2.785,1.231,2.785,2.767C258.787,89.193,257.535,90.432,256.001,90.432z"/>
	<path style="fill:#34495E;" d="M256.001,100.928c-1.528,0-2.783-1.239-2.783-2.767c0-1.536,1.257-2.775,2.783-2.775
		c1.533,0,2.785,1.239,2.785,2.775C258.787,99.686,257.535,100.928,256.001,100.928z"/>
	<path style="fill:#34495E;" d="M256.001,111.424c-1.528,0-2.783-1.239-2.783-2.767c0-1.544,1.257-2.775,2.783-2.775
		c1.533,0,2.785,1.231,2.785,2.775C258.787,110.185,257.535,111.424,256.001,111.424z"/>
	<path style="fill:#34495E;" d="M256.001,121.92c-1.528,0-2.783-1.239-2.783-2.767c0-1.536,1.257-2.775,2.783-2.775
		c1.533,0,2.785,1.239,2.785,2.775C258.787,120.681,257.535,121.92,256.001,121.92z"/>
	<path style="fill:#34495E;" d="M256.001,132.416c-1.528,0-2.783-1.239-2.783-2.77c0-1.536,1.257-2.767,2.783-2.767
		c1.533,0,2.785,1.231,2.785,2.767C258.787,131.177,257.535,132.416,256.001,132.416z"/>
	<path style="fill:#34495E;" d="M256.001,142.912c-1.528,0-2.783-1.239-2.783-2.775s1.257-2.775,2.783-2.775
		c1.533,0,2.785,1.239,2.785,2.775S257.535,142.912,256.001,142.912z"/>
	<path style="fill:#34495E;" d="M101.121,169.359c-0.484,0-0.968-0.128-1.377-0.369c-1.324-0.768-1.779-2.465-1.009-3.791
		c0.481-0.855,1.4-1.393,2.391-1.393c0.484,0,0.96,0.136,1.385,0.376c0.635,0.369,1.101,0.975,1.303,1.679
		c0.184,0.719,0.087,1.464-0.289,2.112C103.034,168.824,102.115,169.359,101.121,169.359z"/>
	<path style="fill:#34495E;" d="M110.209,174.607c-0.471,0-0.968-0.128-1.375-0.369c-1.329-0.768-1.784-2.463-1.009-3.791
		c0.474-0.855,1.4-1.39,2.394-1.39c0.481,0,0.96,0.136,1.38,0.376c0.637,0.369,1.101,0.975,1.303,1.679
		c0.184,0.719,0.087,1.464-0.287,2.112C112.122,174.072,111.203,174.607,110.209,174.607z"/>
	<path style="fill:#34495E;" d="M119.297,179.855c-0.474,0-0.952-0.128-1.372-0.369c-0.66-0.374-1.101-0.975-1.303-1.687
		c-0.179-0.719-0.084-1.464,0.292-2.104c0.492-0.855,1.416-1.393,2.401-1.393c0.486,0,0.952,0.136,1.375,0.376
		c1.329,0.768,1.784,2.473,1.016,3.791C121.21,179.32,120.28,179.855,119.297,179.855z"/>
	<path style="fill:#34495E;" d="M128.398,185.103c-0.484,0-0.96-0.12-1.388-0.369c-0.635-0.376-1.096-0.968-1.288-1.69
		c-0.197-0.719-0.1-1.464,0.276-2.094c0.497-0.865,1.416-1.4,2.406-1.4c0.484,0,0.96,0.136,1.388,0.384
		c1.311,0.76,1.766,2.463,1.014,3.784C130.298,184.568,129.389,185.103,128.398,185.103z"/>
	<path style="fill:#34495E;" d="M137.486,190.351c-0.484,0-0.963-0.128-1.388-0.369c-0.637-0.376-1.096-0.968-1.28-1.687
		c-0.205-0.719-0.097-1.464,0.264-2.104c0.497-0.855,1.421-1.393,2.412-1.393c0.484,0,0.963,0.136,1.388,0.376
		c1.313,0.768,1.764,2.463,1.014,3.791C139.398,189.816,138.474,190.351,137.486,190.351z"/>
	<path style="fill:#34495E;" d="M146.569,195.599c-0.484,0-0.963-0.128-1.385-0.369c-1.311-0.768-1.772-2.465-1.016-3.791
		c0.492-0.855,1.421-1.393,2.412-1.393c0.484,0,0.96,0.136,1.385,0.376c0.637,0.369,1.096,0.975,1.283,1.679
		c0.205,0.719,0.105,1.464-0.266,2.112C148.484,195.064,147.562,195.599,146.569,195.599z"/>
	<path style="fill:#34495E;" d="M155.657,200.847c-0.484,0-0.96-0.128-1.385-0.369c-0.64-0.376-1.106-0.975-1.285-1.687
		c-0.187-0.712-0.092-1.464,0.269-2.097c0.512-0.863,1.416-1.4,2.404-1.4c0.486,0,0.968,0.136,1.388,0.384
		c1.334,0.76,1.792,2.455,1.016,3.784C157.574,200.312,156.645,200.847,155.657,200.847z"/>
	<path style="fill:#34495E;" d="M256.001,374.615c-1.528,0-2.783-1.239-2.783-2.775c0-1.528,1.257-2.767,2.783-2.767
		c1.533,0,2.785,1.239,2.785,2.767C258.787,373.376,257.535,374.615,256.001,374.615z"/>
	<path style="fill:#34495E;" d="M256.001,385.114c-1.528,0-2.783-1.239-2.783-2.778c0-1.528,1.257-2.767,2.783-2.767
		c1.533,0,2.785,1.239,2.785,2.767C258.787,383.872,257.535,385.114,256.001,385.114z"/>
	<path style="fill:#34495E;" d="M256.001,395.599c-1.528,0-2.783-1.231-2.783-2.767c0-1.528,1.257-2.778,2.783-2.778
		c1.533,0,2.785,1.249,2.785,2.778C258.787,394.368,257.535,395.599,256.001,395.599z"/>
	<path style="fill:#34495E;" d="M256.001,406.106c-1.528,0-2.783-1.239-2.783-2.778c0-1.528,1.257-2.775,2.783-2.775
		c1.533,0,2.785,1.247,2.785,2.775C258.787,404.864,257.535,406.106,256.001,406.106z"/>
	<path style="fill:#34495E;" d="M256.001,416.599c-1.528,0-2.783-1.239-2.783-2.775c0-1.531,1.257-2.77,2.783-2.77
		c1.533,0,2.785,1.239,2.785,2.77C258.787,415.36,257.535,416.599,256.001,416.599z"/>
	<path style="fill:#34495E;" d="M256.001,427.095c-1.528,0-2.783-1.239-2.783-2.775c0-1.528,1.257-2.775,2.783-2.775
		c1.533,0,2.785,1.247,2.785,2.775C258.787,425.856,257.535,427.095,256.001,427.095z"/>
	<path style="fill:#34495E;" d="M256.001,437.586c-1.528,0-2.783-1.239-2.783-2.77c0-1.528,1.257-2.775,2.783-2.775
		c1.533,0,2.785,1.247,2.785,2.775S257.535,437.586,256.001,437.586z"/>
	<path style="fill:#34495E;" d="M356.335,316.705c-0.486,0-0.963-0.131-1.388-0.376c-0.653-0.361-1.101-0.968-1.3-1.679
		c-0.187-0.712-0.092-1.462,0.287-2.102c0.492-0.858,1.411-1.385,2.401-1.385c0.489,0,0.952,0.12,1.385,0.369
		c0.645,0.376,1.106,0.968,1.288,1.687c0.184,0.719,0.092,1.464-0.264,2.097C358.235,316.175,357.313,316.705,356.335,316.705z"/>
	<path style="fill:#34495E;" d="M365.426,321.953c-0.484,0-0.965-0.128-1.393-0.376c-0.637-0.369-1.098-0.968-1.28-1.669
		c-0.205-0.719-0.108-1.464,0.266-2.112c0.494-0.847,1.421-1.385,2.406-1.385c0.484,0,0.965,0.12,1.388,0.369
		c1.313,0.76,1.769,2.465,1.016,3.786C367.336,321.426,366.414,321.953,365.426,321.953z"/>
	<path style="fill:#34495E;" d="M374.509,327.201c-0.481,0-0.963-0.128-1.388-0.374c-0.635-0.361-1.096-0.97-1.28-1.672
		c-0.205-0.719-0.095-1.464,0.266-2.112c0.494-0.855,1.421-1.385,2.409-1.385c0.484,0,0.96,0.131,1.39,0.371
		c1.311,0.76,1.761,2.463,1.011,3.784C376.421,326.671,375.502,327.201,374.509,327.201z"/>
	<path style="fill:#34495E;" d="M383.597,332.447c-0.481,0-0.963-0.128-1.388-0.374c-0.635-0.361-1.096-0.968-1.283-1.672
		c-0.179-0.719-0.092-1.464,0.266-2.112c0.494-0.855,1.421-1.382,2.406-1.382c0.484,0,0.965,0.128,1.388,0.369
		c1.308,0.768,1.787,2.463,1.016,3.791C385.509,331.919,384.588,332.447,383.597,332.447z"/>
	<path style="fill:#34495E;" d="M392.682,337.695c-0.481,0-0.945-0.128-1.385-0.374c-0.64-0.361-1.096-0.96-1.288-1.679
		c-0.182-0.712-0.087-1.454,0.271-2.104c0.512-0.847,1.416-1.382,2.406-1.382c0.481,0,0.96,0.12,1.385,0.369
		c1.334,0.768,1.792,2.473,1.014,3.786C394.597,337.167,393.668,337.695,392.682,337.695z"/>
	<path style="fill:#34495E;" d="M401.786,342.953c-0.504,0-0.96-0.138-1.39-0.384c-1.331-0.76-1.787-2.463-1.014-3.784
		c0.494-0.85,1.421-1.385,2.412-1.385c0.463,0,0.96,0.12,1.367,0.369c1.334,0.76,1.787,2.465,1.014,3.786
		C403.683,342.415,402.776,342.953,401.786,342.953z"/>
	<path style="fill:#34495E;" d="M410.874,348.193c-0.484,0-0.965-0.128-1.388-0.376c-1.334-0.76-1.789-2.455-1.016-3.784
		c0.492-0.858,1.421-1.385,2.406-1.385c0.484,0,0.965,0.128,1.372,0.369c1.329,0.771,1.784,2.465,1.016,3.791
		C412.786,347.666,411.862,348.193,410.874,348.193z"/>
	<path style="fill:#34495E;" d="M356.335,200.84c-0.991,0-1.91-0.527-2.401-1.385c-0.376-0.64-0.474-1.385-0.287-2.104
		c0.202-0.712,0.643-1.313,1.3-1.679c0.428-0.241,0.904-0.376,1.382-0.376c0.986,0,1.905,0.527,2.406,1.39
		c0.361,0.632,0.458,1.385,0.271,2.104c-0.182,0.712-0.643,1.311-1.288,1.679C357.283,200.719,356.827,200.84,356.335,200.84z"/>
	<path style="fill:#34495E;" d="M365.426,195.592c-0.991,0-1.912-0.53-2.409-1.385c-0.371-0.64-0.468-1.385-0.269-2.104
		c0.189-0.704,0.648-1.311,1.288-1.679c0.422-0.241,0.904-0.376,1.388-0.376c0.993,0,1.907,0.53,2.404,1.393
		c0.755,1.321,0.3,3.023-1.016,3.784C366.388,195.471,365.91,195.592,365.426,195.592z"/>
	<path style="fill:#34495E;" d="M374.514,190.344c-0.993,0-1.917-0.527-2.406-1.377c-0.361-0.648-0.474-1.4-0.271-2.112
		c0.187-0.719,0.653-1.313,1.283-1.679c0.425-0.241,0.906-0.376,1.39-0.376c0.988,0,1.915,0.527,2.406,1.393
		c0.755,1.321,0.302,3.023-1.014,3.791C375.476,190.223,374.995,190.344,374.514,190.344z"/>
	<path style="fill:#34495E;" d="M383.597,185.096c-0.991,0-1.915-0.53-2.401-1.385c-0.361-0.64-0.458-1.393-0.266-2.104
		c0.179-0.704,0.643-1.311,1.283-1.679c0.42-0.241,0.899-0.374,1.38-0.374c0.993,0,1.917,0.527,2.412,1.39
		c0.776,1.321,0.294,3.023-1.014,3.784C384.567,184.975,384.081,185.096,383.597,185.096z"/>
	<path style="fill:#34495E;" d="M392.69,179.848c-0.993,0-1.902-0.527-2.414-1.385c-0.353-0.64-0.448-1.39-0.266-2.104
		c0.184-0.704,0.645-1.313,1.28-1.679c0.433-0.241,0.906-0.376,1.388-0.376c0.993,0,1.917,0.53,2.412,1.393
		c0.773,1.321,0.317,3.023-1.014,3.784C393.65,179.727,393.169,179.848,392.69,179.848z"/>
	<path style="fill:#34495E;" d="M401.793,174.6c-0.993,0-1.92-0.527-2.412-1.385c-0.776-1.313-0.315-3.016,1.014-3.784
		c0.42-0.248,0.886-0.376,1.39-0.376c0.983,0,1.889,0.527,2.388,1.39c0.773,1.321,0.315,3.026-1.016,3.786
		C402.753,174.479,402.257,174.6,401.793,174.6z"/>
	<path style="fill:#34495E;" d="M410.876,169.352c-0.991,0-1.915-0.53-2.406-1.385c-0.773-1.321-0.32-3.016,1.014-3.784
		c0.425-0.241,0.906-0.376,1.388-0.376c0.993,0,1.917,0.53,2.388,1.393c0.778,1.321,0.317,3.023-1.014,3.784
		C411.841,169.231,411.363,169.352,410.876,169.352z"/>
	<path style="fill:#34495E;" d="M101.121,348.193c-0.988,0-1.912-0.527-2.383-1.393c-0.776-1.321-0.317-3.026,1.009-3.786
		c0.41-0.248,0.888-0.374,1.372-0.374c0.988,0,1.917,0.535,2.406,1.393c0.379,0.64,0.474,1.393,0.284,2.102
		c-0.2,0.712-0.66,1.313-1.3,1.679C102.084,348.065,101.605,348.193,101.121,348.193z"/>
	<path style="fill:#34495E;" d="M110.217,342.953c-0.993,0-1.92-0.538-2.401-1.4c-0.768-1.321-0.312-3.026,1.016-3.786
		c0.407-0.248,0.904-0.369,1.375-0.369c0.986,0,1.91,0.527,2.404,1.385c0.374,0.648,0.468,1.39,0.284,2.109
		c-0.2,0.712-0.663,1.313-1.3,1.672C111.174,342.815,110.698,342.953,110.217,342.953z"/>
	<path style="fill:#34495E;" d="M119.297,337.695c-0.975,0-1.892-0.527-2.388-1.39c-0.374-0.632-0.471-1.385-0.287-2.097
		c0.205-0.719,0.643-1.313,1.3-1.687c0.417-0.248,0.904-0.374,1.367-0.374c0.993,0,1.912,0.535,2.409,1.39
		c0.376,0.64,0.471,1.393,0.287,2.104c-0.184,0.719-0.648,1.321-1.295,1.679C120.265,337.567,119.802,337.695,119.297,337.695z"/>
	<path style="fill:#34495E;" d="M128.401,332.447c-0.988,0-1.912-0.527-2.406-1.393c-0.376-0.63-0.474-1.382-0.271-2.094
		c0.187-0.719,0.653-1.321,1.288-1.687c0.42-0.248,0.906-0.369,1.388-0.369c0.991,0,1.892,0.527,2.404,1.375
		c0.755,1.329,0.3,3.026-1.016,3.791C129.366,332.314,128.884,332.447,128.401,332.447z"/>
	<path style="fill:#34495E;" d="M137.489,327.201c-0.988,0-1.915-0.527-2.406-1.393c-0.768-1.321-0.297-3.023,1.016-3.784
		c0.425-0.251,0.904-0.371,1.388-0.371c0.988,0,1.912,0.53,2.404,1.385c0.361,0.64,0.474,1.393,0.266,2.094
		c-0.179,0.719-0.645,1.331-1.277,1.69C138.454,327.073,137.975,327.201,137.489,327.201z"/>
	<path style="fill:#34495E;" d="M146.574,321.953c-0.988,0-1.912-0.527-2.409-1.393c-0.75-1.321-0.297-3.026,1.019-3.786
		c0.42-0.248,0.896-0.369,1.38-0.369c0.993,0,1.92,0.527,2.412,1.385c0.776,1.321,0.297,3.016-1.016,3.784
		C147.537,321.825,147.058,321.953,146.574,321.953z"/>
	<path style="fill:#34495E;" d="M155.662,316.705c-0.993,0-1.9-0.53-2.412-1.393c-0.356-0.632-0.448-1.385-0.264-2.097
		c0.184-0.719,0.643-1.311,1.28-1.687c0.433-0.248,0.904-0.369,1.388-0.369c0.991,0,1.915,0.527,2.412,1.375
		c0.768,1.331,0.312,3.026-1.016,3.791C156.622,316.567,156.146,316.705,155.662,316.705z"/>
	<circle style="fill:#34495E;" cx="447.105" cy="187.776" r="2.772"/>
	<circle style="fill:#34495E;" cx="447.105" cy="198.272" r="2.772"/>
	<circle style="fill:#34495E;" cx="447.105" cy="208.768" r="2.767"/>
	<circle style="fill:#34495E;" cx="447.105" cy="219.264" r="2.772"/>
	<circle style="fill:#34495E;" cx="447.105" cy="229.76" r="2.772"/>
	<circle style="fill:#34495E;" cx="447.105" cy="240.256" r="2.772"/>
	<circle style="fill:#34495E;" cx="447.105" cy="250.752" r="2.767"/>
	<circle style="fill:#34495E;" cx="447.105" cy="261.248" r="2.772"/>
	<circle style="fill:#34495E;" cx="447.105" cy="271.744" r="2.772"/>
	<circle style="fill:#34495E;" cx="447.105" cy="282.24" r="2.772"/>
	<circle style="fill:#34495E;" cx="447.105" cy="292.736" r="2.767"/>
	<circle style="fill:#34495E;" cx="447.105" cy="303.232" r="2.772"/>
	<circle style="fill:#34495E;" cx="447.105" cy="313.728" r="2.772"/>
	<circle style="fill:#34495E;" cx="447.105" cy="324.224" r="2.772"/>
	<path style="fill:#34495E;" d="M219.534,59.144c-0.993,0-1.92-0.535-2.412-1.39c-0.361-0.64-0.474-1.393-0.264-2.097
		c0.179-0.712,0.643-1.321,1.28-1.69c0.42-0.241,0.901-0.374,1.385-0.374c0.988,0,1.917,0.527,2.406,1.39
		c0.76,1.321,0.305,3.023-1.011,3.784C220.494,59.016,220.018,59.144,219.534,59.144z"/>
	<path style="fill:#34495E;" d="M210.441,64.392c-0.988,0-1.917-0.535-2.406-1.393c-0.374-0.64-0.468-1.385-0.266-2.097
		c0.184-0.719,0.645-1.321,1.28-1.687c0.425-0.241,0.906-0.376,1.388-0.376c0.988,0,1.907,0.535,2.404,1.393
		c0.755,1.321,0.3,3.023-1.009,3.784C211.409,64.264,210.93,64.392,210.441,64.392z"/>
	<path style="fill:#34495E;" d="M201.353,69.647c-0.988,0-1.91-0.543-2.404-1.4c-0.771-1.321-0.32-3.023,1.014-3.784
		c0.428-0.248,0.904-0.376,1.385-0.376c0.993,0,1.905,0.535,2.417,1.393c0.356,0.64,0.448,1.385,0.264,2.104
		c-0.184,0.712-0.643,1.321-1.28,1.679C202.298,69.512,201.842,69.647,201.353,69.647z"/>
	<path style="fill:#34495E;" d="M192.25,74.895c-0.983,0-1.894-0.543-2.388-1.4c-0.376-0.64-0.468-1.393-0.287-2.097
		c0.205-0.712,0.65-1.321,1.303-1.687c0.404-0.241,0.901-0.376,1.372-0.376c0.993,0,1.912,0.543,2.404,1.39
		c0.776,1.321,0.315,3.026-1.016,3.786C193.217,74.76,192.754,74.895,192.25,74.895z"/>
	<path style="fill:#34495E;" d="M183.164,80.128c-0.988,0-1.917-0.527-2.388-1.385c-0.379-0.64-0.489-1.39-0.289-2.097
		c0.189-0.712,0.648-1.321,1.306-1.687c0.407-0.241,0.883-0.376,1.367-0.376c0.988,0,1.912,0.53,2.404,1.393
		c0.376,0.64,0.474,1.385,0.284,2.104c-0.2,0.712-0.655,1.321-1.295,1.679C184.129,80.008,183.648,80.128,183.164,80.128z"/>
	<path style="fill:#34495E;" d="M174.081,85.391c-0.993,0-1.917-0.545-2.412-1.393c-0.75-1.329-0.294-3.023,1.019-3.791
		c0.417-0.241,0.896-0.374,1.38-0.374c0.993,0,1.917,0.527,2.412,1.39c0.376,0.632,0.474,1.385,0.279,2.097
		c-0.197,0.719-0.66,1.329-1.295,1.697C175.041,85.256,174.565,85.391,174.081,85.391z"/>
	<path style="fill:#34495E;" d="M164.993,90.632c-0.988,0-1.912-0.535-2.409-1.393c-0.76-1.321-0.32-3.023,1.014-3.784
		c0.425-0.248,0.904-0.376,1.388-0.376c0.993,0,1.917,0.535,2.412,1.393c0.371,0.64,0.468,1.385,0.264,2.104
		c-0.184,0.712-0.643,1.321-1.28,1.679C165.958,90.504,165.477,90.632,164.993,90.632z"/>
	<path style="fill:#34495E;" d="M155.905,95.887c-0.988,0-1.912-0.543-2.406-1.4c-0.376-0.64-0.474-1.385-0.279-2.094
		c0.197-0.719,0.66-1.321,1.295-1.69c0.425-0.241,0.901-0.376,1.385-0.376c0.991,0,1.92,0.53,2.391,1.393
		c0.776,1.321,0.317,3.023-1.014,3.784C156.873,95.752,156.394,95.887,155.905,95.887z"/>
	<path style="fill:#34495E;" d="M146.825,101.12c-0.991,0-1.92-0.527-2.412-1.385c-0.376-0.64-0.474-1.393-0.284-2.104
		c0.192-0.704,0.666-1.313,1.3-1.679c0.42-0.241,0.893-0.376,1.38-0.376c0.993,0,1.912,0.527,2.394,1.39
		c0.776,1.321,0.32,3.026-1.009,3.786C147.785,101,147.288,101.12,146.825,101.12z"/>
	<path style="fill:#34495E;" d="M137.722,106.376c-0.975,0-1.905-0.535-2.406-1.393c-0.76-1.321-0.305-3.016,1.024-3.784
		c0.425-0.241,0.888-0.376,1.385-0.376c0.975,0,1.9,0.53,2.396,1.393c0.771,1.321,0.317,3.023-1.016,3.784
		C138.676,106.248,138.2,106.376,137.722,106.376z"/>
	<path style="fill:#34495E;" d="M128.628,111.624c-0.991,0-1.907-0.535-2.412-1.39c-0.753-1.321-0.297-3.026,1.016-3.786
		c0.428-0.248,0.904-0.374,1.388-0.374c0.993,0,1.917,0.527,2.412,1.39c0.768,1.321,0.312,3.023-1.016,3.784
		C129.588,111.496,129.115,111.624,128.628,111.624z"/>
	<path style="fill:#34495E;" d="M119.54,116.879c-0.988,0-1.912-0.543-2.406-1.4c-0.356-0.64-0.468-1.385-0.269-2.097
		c0.189-0.712,0.648-1.321,1.283-1.687c0.425-0.241,0.906-0.376,1.388-0.376c0.988,0,1.917,0.527,2.406,1.393
		c0.76,1.321,0.297,3.023-1.016,3.784C120.506,116.744,120.024,116.879,119.54,116.879z"/>
	<path style="fill:#34495E;" d="M110.458,122.112c-0.988,0-1.917-0.53-2.409-1.385c-0.379-0.64-0.468-1.39-0.271-2.104
		c0.192-0.704,0.65-1.311,1.288-1.679c0.425-0.241,0.904-0.376,1.388-0.376c0.988,0,1.912,0.53,2.404,1.393
		c0.755,1.321,0.297,3.023-1.016,3.784C111.42,121.992,110.941,122.112,110.458,122.112z"/>
	<path style="fill:#34495E;" d="M101.375,127.36c-0.993,0-1.917-0.527-2.412-1.377c-0.768-1.329-0.317-3.023,1.016-3.791
		c0.42-0.241,0.901-0.376,1.385-0.376c0.983,0,1.897,0.527,2.406,1.39c0.361,0.64,0.456,1.385,0.269,2.104
		c-0.179,0.712-0.643,1.311-1.283,1.687C102.33,127.24,101.859,127.36,101.375,127.36z"/>
	<path style="fill:#34495E;" d="M410.641,390.185c-0.993,0-1.894-0.545-2.406-1.393c-0.361-0.64-0.458-1.385-0.271-2.104
		c0.187-0.712,0.648-1.313,1.288-1.687c0.42-0.241,0.899-0.374,1.38-0.374c0.993,0,1.917,0.535,2.412,1.39
		c0.374,0.64,0.468,1.393,0.271,2.104c-0.192,0.712-0.653,1.321-1.288,1.687C411.606,390.047,411.127,390.185,410.641,390.185z"/>
	<path style="fill:#34495E;" d="M401.553,395.425c-0.988,0-1.917-0.53-2.406-1.393c-0.361-0.632-0.471-1.385-0.269-2.097
		c0.189-0.709,0.65-1.321,1.285-1.679c0.425-0.248,0.906-0.369,1.388-0.369c0.988,0,1.912,0.527,2.404,1.377
		c0.768,1.321,0.294,3.023-1.014,3.784C402.515,395.295,402.036,395.425,401.553,395.425z"/>
	<path style="fill:#34495E;" d="M392.467,400.673c-0.991,0-1.912-0.527-2.409-1.385c-0.374-0.648-0.468-1.382-0.264-2.102
		c0.182-0.719,0.643-1.313,1.28-1.69c0.42-0.241,0.901-0.374,1.382-0.374c0.991,0,1.917,0.535,2.412,1.393
		c0.753,1.321,0.297,3.023-1.019,3.791C393.43,400.545,392.948,400.673,392.467,400.673z"/>
	<path style="fill:#34495E;" d="M383.382,405.926c-0.988,0-1.915-0.535-2.412-1.393c-0.768-1.321-0.315-3.023,1.016-3.789
		c0.422-0.241,0.904-0.371,1.39-0.371c0.991,0,1.897,0.538,2.409,1.385c0.351,0.648,0.448,1.385,0.264,2.112
		c-0.182,0.712-0.643,1.313-1.28,1.679C384.337,405.793,383.866,405.926,383.382,405.926z"/>
	<path style="fill:#34495E;" d="M374.273,411.167c-0.993,0-1.897-0.535-2.388-1.393c-0.376-0.64-0.474-1.375-0.284-2.094
		c0.2-0.712,0.648-1.313,1.3-1.679c0.412-0.248,0.906-0.374,1.372-0.374c0.983,0,1.912,0.527,2.401,1.382
		c0.773,1.321,0.317,3.026-1.014,3.786C375.241,411.041,374.775,411.167,374.273,411.167z"/>
	<path style="fill:#34495E;" d="M365.193,416.425c-0.993,0-1.92-0.538-2.394-1.393c-0.374-0.64-0.481-1.393-0.284-2.104
		c0.179-0.712,0.645-1.321,1.293-1.687c0.407-0.241,0.888-0.369,1.367-0.369c0.993,0,1.92,0.535,2.412,1.382
		c0.379,0.65,0.468,1.385,0.287,2.112c-0.207,0.712-0.668,1.313-1.303,1.679C366.153,416.287,365.677,416.425,365.193,416.425z"/>
	<path style="fill:#34495E;" d="M356.108,421.673c-0.993,0-1.912-0.538-2.409-1.393c-0.755-1.321-0.3-3.026,1.024-3.791
		c0.412-0.241,0.893-0.369,1.375-0.369c0.991,0,1.912,0.527,2.409,1.385c0.374,0.64,0.468,1.39,0.287,2.102
		c-0.207,0.719-0.668,1.321-1.306,1.687C357.068,421.535,356.589,421.673,356.108,421.673z"/>
	<path style="fill:#34495E;" d="M347.017,426.921c-0.991,0-1.915-0.535-2.409-1.4c-0.374-0.632-0.471-1.385-0.269-2.094
		c0.189-0.719,0.65-1.321,1.285-1.69c0.425-0.241,0.906-0.369,1.388-0.369c0.993,0,1.917,0.538,2.412,1.385
		c0.753,1.329,0.315,3.023-1.014,3.784C347.977,426.785,347.501,426.921,347.017,426.921z"/>
	<path style="fill:#34495E;" d="M337.934,432.161c-0.993,0-1.917-0.535-2.412-1.385c-0.374-0.64-0.468-1.382-0.287-2.102
		c0.207-0.712,0.668-1.313,1.303-1.687c0.425-0.241,0.901-0.376,1.385-0.376c0.993,0,1.912,0.538,2.406,1.393
		c0.361,0.64,0.474,1.393,0.266,2.104c-0.182,0.709-0.643,1.321-1.3,1.687C338.897,432.033,338.415,432.161,337.934,432.161z"/>
	<path style="fill:#34495E;" d="M328.841,437.407c-0.993,0-1.912-0.527-2.404-1.393c-0.374-0.63-0.468-1.382-0.287-2.094
		c0.205-0.712,0.66-1.321,1.3-1.679c0.425-0.248,0.906-0.369,1.393-0.369c0.986,0,1.912,0.527,2.386,1.375
		c0.776,1.321,0.315,3.026-1.016,3.786C329.809,437.281,329.322,437.407,328.841,437.407z"/>
	<path style="fill:#34495E;" d="M319.753,442.655c-0.993,0-1.912-0.527-2.406-1.382c-0.374-0.648-0.471-1.385-0.279-2.104
		c0.182-0.719,0.655-1.321,1.3-1.687c0.42-0.241,0.883-0.374,1.38-0.374c0.991,0,1.9,0.535,2.396,1.39
		c0.773,1.321,0.315,3.026-1.014,3.791C320.705,442.527,320.227,442.655,319.753,442.655z"/>
	<path style="fill:#34495E;" d="M310.655,447.913c-0.988,0-1.9-0.538-2.411-1.393c-0.353-0.632-0.448-1.393-0.266-2.104
		c0.184-0.709,0.645-1.321,1.28-1.687c0.425-0.241,0.906-0.369,1.39-0.369c0.988,0,1.915,0.535,2.409,1.385
		c0.374,0.648,0.471,1.382,0.279,2.102c-0.2,0.719-0.66,1.321-1.295,1.687C311.617,447.775,311.136,447.913,310.655,447.913z"/>
	<path style="fill:#34495E;" d="M301.567,453.153c-0.993,0-1.917-0.538-2.409-1.393c-0.356-0.64-0.468-1.375-0.264-2.094
		c0.179-0.712,0.643-1.321,1.28-1.679c0.422-0.251,0.904-0.376,1.388-0.376c0.988,0,1.912,0.527,2.406,1.385
		c0.768,1.321,0.297,3.023-1.014,3.784C302.534,453.025,302.048,453.153,301.567,453.153z"/>
	<path style="fill:#34495E;" d="M292.476,458.406c-0.988,0-1.91-0.527-2.401-1.393c-0.376-0.64-0.474-1.39-0.266-2.102
		c0.179-0.712,0.645-1.321,1.277-1.687c0.422-0.241,0.901-0.371,1.382-0.371c0.993,0,1.92,0.538,2.412,1.385
		c0.755,1.329,0.294,3.026-1.014,3.791C293.441,458.273,292.963,458.406,292.476,458.406z"/>
	<path style="fill:#34495E;" d="M410.636,127.375c-0.481,0-0.963-0.136-1.388-0.376c-0.635-0.369-1.096-0.968-1.28-1.687
		c-0.182-0.719-0.092-1.464,0.266-2.097c0.512-0.863,1.421-1.393,2.412-1.393c0.481,0,0.963,0.136,1.388,0.376
		c0.635,0.361,1.096,0.968,1.295,1.687c0.187,0.704,0.092,1.457-0.282,2.097C412.548,126.84,411.626,127.375,410.636,127.375
		L410.636,127.375z"/>
	<path style="fill:#34495E;" d="M401.553,122.12c-0.484,0-0.965-0.12-1.388-0.369c-0.637-0.369-1.098-0.968-1.285-1.69
		c-0.2-0.712-0.087-1.464,0.266-2.097c0.497-0.863,1.421-1.39,2.406-1.39c0.484,0,0.965,0.136,1.39,0.376
		c1.311,0.768,1.774,2.463,1.014,3.791C403.468,121.592,402.541,122.12,401.553,122.12L401.553,122.12z"/>
	<path style="fill:#34495E;" d="M392.462,116.887c-0.484,0-0.96-0.136-1.385-0.384c-0.635-0.369-1.096-0.968-1.283-1.687
		c-0.2-0.712-0.105-1.464,0.271-2.097c0.489-0.863,1.416-1.393,2.401-1.393c0.484,0,0.968,0.128,1.388,0.376
		c1.313,0.76,1.772,2.463,1.016,3.784C394.382,116.344,393.453,116.887,392.462,116.887L392.462,116.887z"/>
	<path style="fill:#34495E;" d="M383.382,111.624c-0.484,0-0.968-0.12-1.388-0.369c-1.334-0.76-1.792-2.463-1.016-3.784
		c0.492-0.865,1.421-1.393,2.412-1.393c0.484,0,0.957,0.128,1.38,0.376c0.64,0.361,1.106,0.968,1.285,1.679
		c0.187,0.712,0.092,1.464-0.266,2.104C385.281,111.096,384.375,111.624,383.382,111.624L383.382,111.624z"/>
	<path style="fill:#34495E;" d="M374.281,106.383c-0.474,0-0.952-0.136-1.375-0.376c-0.658-0.374-1.098-0.968-1.3-1.687
		c-0.184-0.712-0.09-1.464,0.282-2.097c0.492-0.863,1.4-1.39,2.394-1.39c0.504,0,0.968,0.136,1.388,0.374
		c1.334,0.768,1.784,2.465,1.014,3.791C376.186,105.848,375.267,106.383,374.281,106.383L374.281,106.383z"/>
	<path style="fill:#34495E;" d="M365.185,101.128c-0.481,0-0.96-0.12-1.37-0.369c-0.65-0.361-1.111-0.968-1.295-1.687
		c-0.192-0.719-0.092-1.464,0.279-2.097c0.481-0.863,1.408-1.393,2.401-1.393c0.481,0,0.955,0.136,1.38,0.376
		c0.635,0.361,1.096,0.968,1.3,1.687c0.184,0.704,0.092,1.457-0.284,2.097C367.1,100.6,366.176,101.128,365.185,101.128
		L365.185,101.128z"/>
	<path style="fill:#34495E;" d="M356.102,95.887c-0.484,0-0.965-0.128-1.38-0.374c-1.316-0.76-1.774-2.465-1.014-3.786
		c0.486-0.863,1.416-1.4,2.401-1.4c0.484,0,0.965,0.136,1.385,0.384c0.635,0.361,1.096,0.968,1.3,1.687
		c0.182,0.704,0.095,1.457-0.284,2.097C358.017,95.352,357.088,95.887,356.102,95.887L356.102,95.887z"/>
	<path style="fill:#34495E;" d="M347.014,90.647c-0.484,0-0.965-0.136-1.385-0.384c-0.635-0.361-1.096-0.968-1.293-1.687
		c-0.189-0.712-0.102-1.464,0.276-2.097c0.492-0.863,1.421-1.393,2.406-1.393c0.484,0,0.965,0.128,1.388,0.376
		c1.329,0.76,1.766,2.463,1.016,3.784C348.929,90.104,348.005,90.647,347.014,90.647L347.014,90.647z"/>
	<path style="fill:#34495E;" d="M337.926,85.391c-0.484,0-0.96-0.136-1.385-0.376c-0.635-0.361-1.096-0.968-1.3-1.69
		c-0.184-0.712-0.092-1.464,0.284-2.094c0.494-0.855,1.421-1.393,2.409-1.393c0.484,0,0.965,0.136,1.377,0.376
		c0.643,0.361,1.108,0.968,1.288,1.687c0.207,0.712,0.095,1.457-0.271,2.097C339.841,84.856,338.917,85.391,337.926,85.391
		L337.926,85.391z"/>
	<path style="fill:#34495E;" d="M328.841,80.143c-0.481,0-0.96-0.128-1.388-0.376c-0.637-0.369-1.093-0.968-1.3-1.687
		c-0.179-0.704-0.087-1.457,0.287-2.097c0.494-0.863,1.416-1.39,2.406-1.39c0.481,0,0.96,0.136,1.367,0.374
		c1.334,0.768,1.789,2.465,1.016,3.791C330.761,79.608,329.834,80.143,328.841,80.143L328.841,80.143z"/>
	<path style="fill:#34495E;" d="M319.753,74.903c-0.504,0-0.96-0.136-1.385-0.384c-0.648-0.361-1.121-0.968-1.3-1.687
		c-0.187-0.712-0.092-1.457,0.276-2.097c0.494-0.855,1.423-1.393,2.414-1.393c0.466,0,0.96,0.128,1.367,0.376
		c1.334,0.76,1.792,2.463,1.016,3.784C321.655,74.36,320.746,74.903,319.753,74.903L319.753,74.903z"/>
	<path style="fill:#34495E;" d="M310.65,69.647c-0.481,0-0.96-0.136-1.382-0.374c-0.637-0.361-1.101-0.968-1.28-1.69
		c-0.192-0.704-0.092-1.464,0.264-2.097c0.512-0.863,1.421-1.39,2.412-1.39c0.484,0,0.96,0.128,1.385,0.376
		c0.635,0.361,1.101,0.968,1.29,1.687c0.197,0.719,0.1,1.457-0.274,2.097C312.567,69.112,311.635,69.647,310.65,69.647
		L310.65,69.647z"/>
	<path style="fill:#34495E;" d="M301.567,64.399c-0.484,0-0.965-0.136-1.39-0.376c-0.635-0.369-1.096-0.968-1.28-1.687
		c-0.2-0.712-0.087-1.449,0.266-2.097c0.492-0.855,1.421-1.393,2.406-1.393c0.486,0,0.968,0.136,1.393,0.376
		c1.313,0.768,1.784,2.463,1.014,3.791C303.476,63.864,302.557,64.399,301.567,64.399L301.567,64.399z"/>
	<path style="fill:#34495E;" d="M292.476,59.151c-0.481,0-0.963-0.128-1.388-0.376c-0.632-0.361-1.096-0.968-1.28-1.69
		c-0.202-0.704-0.102-1.464,0.266-2.094c0.492-0.865,1.418-1.393,2.409-1.393c0.481,0,0.96,0.128,1.388,0.376
		c1.313,0.76,1.766,2.463,1.014,3.784C294.394,58.616,293.469,59.151,292.476,59.151L292.476,59.151z"/>
	<path style="fill:#34495E;" d="M219.519,458.406c-0.484,0-0.963-0.136-1.388-0.374c-0.635-0.369-1.096-0.978-1.28-1.687
		c-0.205-0.719-0.087-1.457,0.266-2.097c0.494-0.855,1.421-1.382,2.412-1.382c0.484,0,0.963,0.12,1.388,0.369
		c1.311,0.76,1.766,2.463,1.011,3.784C221.428,457.879,220.504,458.406,219.519,458.406L219.519,458.406z"/>
	<path style="fill:#34495E;" d="M210.428,453.153c-0.484,0-0.96-0.128-1.385-0.369c-0.637-0.371-1.101-0.978-1.283-1.69
		c-0.205-0.709-0.108-1.462,0.266-2.094c0.492-0.865,1.416-1.393,2.409-1.393c0.484,0,0.968,0.128,1.388,0.376
		c1.313,0.76,1.769,2.463,1.016,3.784C212.338,452.626,211.421,453.153,210.428,453.153L210.428,453.153z"/>
	<path style="fill:#34495E;" d="M201.338,447.913c-0.476,0-0.957-0.138-1.38-0.376c-1.334-0.768-1.789-2.463-1.014-3.789
		c0.492-0.85,1.416-1.385,2.401-1.385c0.489,0,0.952,0.128,1.393,0.369c0.637,0.369,1.096,0.978,1.283,1.687
		c0.179,0.712,0.092,1.464-0.266,2.104C203.242,447.375,202.328,447.913,201.338,447.913L201.338,447.913z"/>
	<path style="fill:#34495E;" d="M192.242,442.655c-0.463,0-0.96-0.128-1.367-0.369c-0.655-0.369-1.096-0.975-1.306-1.687
		c-0.179-0.704-0.087-1.464,0.289-2.104c0.486-0.855,1.4-1.382,2.391-1.382c0.497,0,0.96,0.128,1.385,0.369
		c1.331,0.768,1.787,2.473,1.014,3.791C194.154,442.127,193.233,442.655,192.242,442.655L192.242,442.655z"/>
	<path style="fill:#34495E;" d="M183.154,437.414c-0.484,0-0.96-0.136-1.37-0.374c-0.655-0.369-1.116-0.968-1.3-1.679
		c-0.205-0.727-0.092-1.464,0.284-2.104c0.481-0.855,1.4-1.382,2.394-1.382c0.484,0,0.96,0.12,1.388,0.369
		c0.637,0.361,1.096,0.968,1.3,1.679c0.184,0.712,0.09,1.464-0.287,2.104C185.066,436.887,184.145,437.414,183.154,437.414
		L183.154,437.414z"/>
	<path style="fill:#34495E;" d="M174.066,432.161c-0.484,0-0.963-0.128-1.388-0.369c-1.313-0.768-1.764-2.465-1.014-3.791
		c0.497-0.855,1.421-1.393,2.409-1.393c0.484,0,0.963,0.138,1.388,0.376c0.637,0.374,1.096,0.975,1.3,1.687
		c0.184,0.719,0.087,1.462-0.284,2.102C175.981,431.626,175.057,432.161,174.066,432.161L174.066,432.161z"/>
	<path style="fill:#34495E;" d="M164.98,426.921c-0.486,0-0.963-0.136-1.388-0.374c-1.329-0.771-1.769-2.465-1.014-3.791
		c0.492-0.847,1.421-1.385,2.406-1.385c0.484,0,0.965,0.128,1.385,0.369c0.635,0.371,1.101,0.978,1.28,1.69
		c0.207,0.709,0.108,1.462-0.266,2.102C166.898,426.386,165.969,426.921,164.98,426.921L164.98,426.921z"/>
	<path style="fill:#34495E;" d="M155.895,421.673c-0.484,0-0.965-0.138-1.385-0.376c-0.635-0.369-1.101-0.968-1.3-1.687
		c-0.187-0.712-0.092-1.462,0.284-2.102c0.492-0.858,1.421-1.385,2.406-1.385c0.486,0,0.963,0.128,1.372,0.369
		c1.329,0.768,1.784,2.473,1.014,3.791C157.81,421.135,156.881,421.673,155.895,421.673L155.895,421.673z"/>
	<path style="fill:#34495E;" d="M146.81,416.425c-0.494,0-0.968-0.138-1.388-0.376c-0.637-0.369-1.108-0.968-1.3-1.679
		c-0.184-0.727-0.087-1.462,0.284-2.102c0.497-0.858,1.421-1.385,2.412-1.385c0.463,0,0.96,0.12,1.367,0.369
		c1.334,0.76,1.784,2.465,1.016,3.786C148.704,415.895,147.793,416.425,146.81,416.425L146.81,416.425z"/>
	<path style="fill:#34495E;" d="M137.706,411.174c-0.486,0-0.945-0.136-1.377-0.374c-1.324-0.768-1.779-2.465-1.014-3.786
		c0.494-0.863,1.423-1.39,2.406-1.39c0.474,0,0.947,0.128,1.377,0.374c1.331,0.76,1.787,2.465,1.016,3.786
		C139.619,410.639,138.697,411.174,137.706,411.174L137.706,411.174z"/>
	<path style="fill:#34495E;" d="M128.618,405.926c-0.484,0-0.963-0.136-1.385-0.374c-1.316-0.768-1.772-2.465-1.016-3.791
		c0.504-0.847,1.416-1.385,2.404-1.385c0.484,0,0.963,0.131,1.388,0.371c1.329,0.768,1.792,2.47,1.016,3.789
		C130.533,405.391,129.604,405.926,128.618,405.926L128.618,405.926z"/>
	<path style="fill:#34495E;" d="M119.533,400.673c-0.484,0-0.965-0.128-1.388-0.369c-0.637-0.371-1.096-0.978-1.283-1.69
		c-0.2-0.709-0.092-1.462,0.266-2.102c0.492-0.847,1.421-1.385,2.409-1.385c0.484,0,0.963,0.128,1.388,0.369
		c1.316,0.771,1.772,2.473,1.016,3.791C121.445,400.146,120.521,400.673,119.533,400.673L119.533,400.673z"/>
	<path style="fill:#34495E;" d="M110.445,395.433c-0.484,0-0.96-0.138-1.388-0.376c-0.637-0.369-1.096-0.968-1.28-1.679
		c-0.205-0.727-0.113-1.462,0.264-2.102c0.497-0.858,1.421-1.385,2.412-1.385c0.484,0,0.96,0.12,1.388,0.369
		c1.308,0.76,1.764,2.465,1.009,3.786C112.355,394.906,111.438,395.433,110.445,395.433L110.445,395.433z"/>
	<path style="fill:#34495E;" d="M101.354,390.185c-0.481,0-0.96-0.138-1.385-0.376c-1.331-0.768-1.784-2.463-1.011-3.791
		c0.497-0.855,1.421-1.39,2.406-1.39c0.484,0,0.957,0.136,1.388,0.374c0.635,0.374,1.096,0.975,1.28,1.687
		c0.184,0.719,0.087,1.457-0.266,2.104C103.256,389.64,102.345,390.185,101.354,390.185L101.354,390.185z"/>
</g>
<path style="fill:#4BD6C0;" d="M365.329,256c0,60.393-48.934,109.32-109.327,109.32c-60.388,0-109.327-48.927-109.327-109.32
	c0-60.383,48.94-109.32,109.327-109.32C316.394,146.68,365.329,195.617,365.329,256z"/>
<path style="fill:#2FB49E;" d="M317.441,256c0,33.935-27.507,61.432-61.44,61.432c-33.923,0-61.44-27.497-61.44-61.432
	c0-33.928,27.517-61.432,61.44-61.432C289.934,194.568,317.441,222.072,317.441,256z"/>
<circle style="fill:#FF7059;" cx="256.001" cy="35.305" r="35.305"/>
<path style="fill:#34495E;" d="M100.184,145.664c0,19.497-15.803,35.305-35.305,35.305s-35.315-15.808-35.315-35.305
	c0-19.505,15.816-35.32,35.315-35.32S100.184,126.159,100.184,145.664z"/>
<path style="fill:#CDD3DA;" d="M100.184,366.336c0,19.505-15.8,35.313-35.3,35.313c-19.505,0-35.32-15.808-35.32-35.313
	c0-19.494,15.816-35.302,35.32-35.302C84.384,331.034,100.184,346.839,100.184,366.336z"/>
<path style="fill:#34495E;" d="M291.296,476.695c0,19.497-15.795,35.305-35.295,35.305c-19.5,0-35.313-15.808-35.313-35.305
	c0-19.502,15.813-35.31,35.313-35.31S291.296,457.193,291.296,476.695z"/>
<path style="fill:#FF7059;" d="M482.436,366.336c0,19.505-15.823,35.313-35.323,35.313s-35.297-15.808-35.297-35.313
	c0-19.494,15.798-35.302,35.297-35.302S482.436,346.839,482.436,366.336z"/>
<path style="fill:#CDD3DA;" d="M482.436,145.656c0,19.505-15.823,35.31-35.323,35.31s-35.297-15.808-35.297-35.31
	c0-19.497,15.798-35.32,35.297-35.32S482.436,126.159,482.436,145.656z"/>
<g>
</g>
<g>
</g>
<g>
</g>
<g>
</g>
<g>
</g>
<g>
</g>
<g>
</g>
<g>
</g>
<g>
</g>
<g>
</g>
<g>
</g>
<g>
</g>
<g>
</g>
<g>
</g>
<g>
</g>
</svg>
