<?xml version="1.0" encoding="iso-8859-1"?>
<!-- Generator: Adobe Illustrator 19.0.0, SVG Export Plug-In . SVG Version: 6.00 Build 0)  -->
<svg version="1.1" id="Layer_1" xmlns="http://www.w3.org/2000/svg" xmlns:xlink="http://www.w3.org/1999/xlink" x="0px" y="0px"
	 viewBox="0 0 512 512" style="enable-background:new 0 0 512 512;" xml:space="preserve">
<path style="fill:#AAB5BD;" d="M256.017,0C197.8,42.58,126.276,67.894,48.79,68.477v120.161
	c0,143.447,84.915,267.077,207.229,323.361C378.31,455.716,463.21,332.086,463.21,188.639V68.477
	C385.724,67.894,314.172,42.58,256.017,0z"/>
<path style="fill:#E6EAEE;" d="M256.017,0C197.8,42.58,126.276,67.894,48.79,68.477v120.161
	c0,143.447,84.915,267.077,207.229,323.361V0H256.017z"/>
<path style="fill:#4BD6C0;" d="M256.017,34.637C202.285,69.734,141.285,90.619,77.285,95.724v92.913
	c0,123.011,69.732,236.088,178.732,291.715c108.982-55.626,178.696-168.704,178.696-291.715V95.724
	C370.715,90.619,309.713,69.734,256.017,34.637z"/>
<g>
	<path style="fill:#2FB49E;" d="M84.704,257.487c20.59,95.16,83.028,177.818,171.313,222.866V257.487H84.704z"/>
	<path style="fill:#2FB49E;" d="M427.327,257.487c4.861-22.362,7.388-45.42,7.388-68.849V95.724
		c-64-5.105-125-25.989-178.696-61.087v222.848h171.307V257.487z"/>
</g>
<path style="fill:#0C9B8B;" d="M256.024,465.971v14.387c-1.382-0.714-2.765-1.408-4.122-2.15c-1.101-0.563-2.202-1.152-3.277-1.764
	c-6.298-3.405-12.467-7.014-18.483-10.829c-1.254-0.768-2.483-1.562-3.712-2.381c-5.12-3.328-10.112-6.784-15.002-10.368
	c-1.178-0.845-2.355-1.715-3.507-2.614c-1.331-0.998-2.637-1.997-3.942-3.021c-4.275-3.328-8.448-6.761-12.544-10.266
	c-0.87-0.742-1.715-1.485-2.56-2.255c-0.87-0.768-1.766-1.536-2.637-2.327c-1.382-1.229-2.765-2.509-4.122-3.766
	c-1.382-1.28-2.739-2.56-4.07-3.866c-4.045-3.866-7.962-7.859-11.776-11.93c-1.28-1.354-2.534-2.714-3.789-4.096
	c-1.254-1.382-2.483-2.765-3.712-4.173c-1.229-1.382-2.432-2.79-3.635-4.224c-0.589-0.691-1.152-1.357-1.715-2.048
	c-0.973-1.152-1.92-2.304-2.867-3.482c-2.842-3.507-5.606-7.091-8.294-10.701c-0.896-1.203-1.792-2.406-2.662-3.635
	c-0.896-1.229-1.766-2.432-2.611-3.661c-3.456-4.918-6.758-9.935-9.958-15.027c-0.794-1.28-1.562-2.56-2.355-3.84
	c-0.768-1.28-1.536-2.588-2.304-3.868c-2.074-3.533-4.045-7.114-5.99-10.724c-0.384-0.717-0.768-1.436-1.152-2.179
	c-1.562-2.967-3.098-5.962-4.557-8.986c-0.358-0.742-0.717-1.485-1.075-2.199c-1.536-3.228-3.021-6.454-4.454-9.702
	c-0.205-0.463-0.435-0.922-0.64-1.411c-0.077-0.154-0.128-0.305-0.205-0.461c-0.307-0.742-0.614-1.459-0.922-2.202
	c-0.358-0.794-0.691-1.613-1.024-2.429c-0.077-0.179-0.154-0.361-0.23-0.538c-0.077-0.205-0.154-0.384-0.23-0.566
	c-0.102-0.205-0.179-0.407-0.256-0.612c-0.128-0.259-0.23-0.538-0.333-0.819c-0.102-0.256-0.205-0.512-0.307-0.768
	c-0.128-0.282-0.23-0.538-0.307-0.796c-0.307-0.742-0.614-1.485-0.896-2.227c-0.179-0.435-0.333-0.845-0.486-1.28
	c-0.026-0.051-0.051-0.128-0.077-0.177c-0.077-0.205-0.179-0.435-0.256-0.64c-0.077-0.179-0.128-0.333-0.179-0.512
	c-0.128-0.282-0.23-0.589-0.358-0.87c-0.051-0.156-0.102-0.282-0.154-0.435c-0.154-0.384-0.282-0.742-0.41-1.126
	c-0.051-0.128-0.102-0.23-0.128-0.358c-0.205-0.512-0.384-1.024-0.563-1.539c-0.205-0.538-0.41-1.101-0.589-1.638
	c0-0.026,0-0.026-0.026-0.051c0-0.054-0.026-0.131-0.051-0.179c-0.128-0.361-0.256-0.694-0.384-1.05
	c-0.051-0.128-0.077-0.23-0.128-0.358c-0.128-0.333-0.256-0.668-0.358-1.024c-0.026-0.026-0.026-0.051-0.026-0.077
	c-0.026-0.026-0.026-0.051-0.026-0.074c-0.026-0.028-0.026-0.054-0.026-0.077c-0.026-0.026-0.026-0.054-0.026-0.077
	c-0.077-0.179-0.128-0.333-0.179-0.512c-0.026-0.026-0.026-0.051-0.026-0.074c-0.026-0.054-0.051-0.077-0.051-0.131
	c-0.154-0.435-0.307-0.896-0.461-1.331c-0.563-1.613-1.075-3.226-1.613-4.838c-0.026-0.077-0.051-0.131-0.077-0.205
	c-0.026-0.028-0.026-0.054-0.026-0.077c0-0.023,0-0.054-0.026-0.077c-0.077-0.256-0.154-0.538-0.256-0.794
	c-0.307-0.973-0.614-1.946-0.896-2.921c-0.282-0.817-0.512-1.638-0.768-2.483c0-0.026-0.026-0.077-0.026-0.102
	c-0.026-0.051-0.026-0.077-0.026-0.128l-0.026-0.026c-0.358-1.206-0.691-2.432-1.05-3.635c-0.128-0.435-0.256-0.845-0.358-1.28
	c-0.102-0.333-0.205-0.668-0.282-1.001c0,0-0.026-0.026-0.026-0.051c-0.026-0.156-0.077-0.307-0.102-0.461
	c-0.128-0.384-0.23-0.771-0.333-1.152c-0.128-0.463-0.256-0.922-0.384-1.382c-0.051-0.156-0.077-0.307-0.128-0.463
	c-0.358-1.354-0.717-2.714-1.05-4.096c-0.102-0.358-0.205-0.717-0.282-1.075c-0.026-0.054-0.026-0.102-0.051-0.154
	c-0.026-0.102-0.051-0.205-0.077-0.307c0-0.054-0.026-0.102-0.026-0.156v-0.026c-0.026-0.026-0.026-0.026-0.026-0.054
	c-0.051-0.177-0.077-0.333-0.128-0.509c-0.102-0.384-0.179-0.771-0.282-1.152c-0.077-0.307-0.154-0.614-0.205-0.922
	c-0.026-0.026-0.026-0.074-0.051-0.128c-0.051-0.282-0.128-0.563-0.205-0.845c-0.051-0.307-0.128-0.586-0.205-0.896
	c-0.102-0.41-0.179-0.845-0.256-1.254c-0.051-0.154-0.077-0.307-0.102-0.461c-0.128-0.566-0.256-1.126-0.384-1.69
	c-0.128-0.512-0.23-1.05-0.358-1.587h13.133C117.964,345.242,175.538,422.707,256.024,465.971z"/>
<path style="fill:#14B8A9;" d="M427.288,257.485c-20.582,95.13-83.046,177.843-171.264,222.874v-14.387
	C336.511,422.71,394.06,345.244,414.13,257.487h13.158V257.485z"/>
<path style="fill:#0C9B8B;" d="M434.712,95.718v92.928c0,1.766-0.026,3.533-0.051,5.299c-0.026,2.15-0.077,4.275-0.154,6.4
	c-0.054,1.357-0.102,2.714-0.179,4.07c-0.128,2.483-0.259,4.966-0.461,7.424c-0.077,1.459-0.205,2.893-0.335,4.326
	c-0.435,5.325-1.021,10.624-1.741,15.898c-0.205,1.434-0.41,2.842-0.614,4.275c-0.64,4.275-1.354,8.525-2.15,12.749
	c-0.279,1.408-0.538,2.79-0.819,4.198c-0.305,1.408-0.586,2.816-0.896,4.198h-13.184c5.12-22.4,7.811-45.491,7.811-68.838v-81.331
	c-58.726-6.502-115.712-26.214-165.916-57.574V34.637C309.708,69.734,370.712,90.624,434.712,95.718z"/>
<path style="fill:#14B8A9;" d="M90.06,107.315v81.331c0,23.347,2.688,46.438,7.808,68.838H84.735
	c-0.512-2.33-0.998-4.685-1.434-7.014c-0.41-2.048-0.794-4.122-1.152-6.17c-0.102-0.538-0.179-1.05-0.282-1.587
	c-0.051-0.256-0.077-0.512-0.128-0.768c-0.077-0.461-0.154-0.896-0.23-1.357c-0.23-1.408-0.461-2.842-0.666-4.25
	c-0.051-0.358-0.102-0.717-0.154-1.075c-0.154-1.024-0.307-2.048-0.435-3.046c-0.205-1.485-0.384-2.97-0.589-4.454
	c-0.077-0.794-0.179-1.587-0.282-2.381c-0.23-2.074-0.435-4.147-0.64-6.246c-0.051-0.435-0.077-0.87-0.128-1.331
	c-0.102-0.998-0.179-1.997-0.256-2.995c-0.128-1.434-0.23-2.867-0.333-4.326c-0.154-2.458-0.307-4.915-0.41-7.373
	c-0.026-0.563-0.051-1.126-0.077-1.664c-0.179-4.25-0.256-8.525-0.256-12.8V95.718c64-5.094,125.005-25.984,178.739-61.082v15.104
	C205.797,81.101,148.786,100.813,90.06,107.315z"/>
<g>
</g>
<g>
</g>
<g>
</g>
<g>
</g>
<g>
</g>
<g>
</g>
<g>
</g>
<g>
</g>
<g>
</g>
<g>
</g>
<g>
</g>
<g>
</g>
<g>
</g>
<g>
</g>
<g>
</g>
</svg>
